<svg width="32" height="24" viewBox="0 0 32 24" fill="none" xmlns="http://www.w3.org/2000/svg">
<path d="M2 10.5C1.17157 10.5 0.5 11.1716 0.5 12C0.5 12.8284 1.17157 13.5 2 13.5V10.5ZM31.0719 13.0607C31.6577 12.4749 31.6577 11.5251 31.0719 10.9393L21.526 1.3934C20.9402 0.807611 19.9904 0.807611 19.4047 1.3934C18.8189 1.97919 18.8189 2.92893 19.4047 3.51472L27.8899 12L19.4047 20.4853C18.8189 21.0711 18.8189 22.0208 19.4047 22.6066C19.9904 23.1924 20.9402 23.1924 21.526 22.6066L31.0719 13.0607ZM2 13.5H30.0113V10.5H2V13.5Z" fill="white"/>
</svg>
