<svg width="387" height="389" viewBox="0 0 387 389" fill="none" xmlns="http://www.w3.org/2000/svg">
<path d="M130.884 98.6674L130.884 98.6672C132.301 96.3923 133.596 94.2393 134.591 92.5237C132.037 92.4358 128.566 92.4327 124.819 92.5057C117.06 92.657 108.492 93.1271 104.652 93.7652L104.651 93.7653C89.5622 96.2691 78.3075 104.307 67.8007 120.71C63.5641 127.325 48.6471 154.064 34.3442 180.264C27.21 193.333 20.2545 206.22 14.8985 216.322C9.47566 226.55 5.83655 233.661 5.17554 235.388C3.97624 238.523 3.26436 242.072 3.09483 245.257C2.91914 248.557 3.3501 250.993 3.99259 252.196L130.884 98.6674ZM130.884 98.6674C113.374 126.803 101.071 164.826 97.0189 203.035L95.6786 215.676M130.884 98.6674L95.6786 215.676M95.6786 215.676L83.4447 221.32C75.8992 224.801 56.3777 233.441 40.0703 240.514C24.5441 247.249 15.4316 250.911 9.9081 252.342C7.11897 253.065 5.66219 253.098 4.91559 252.943C4.46642 252.85 4.27167 252.718 3.99281 252.196L95.6786 215.676ZM153.447 383.894L153.448 383.893C155.062 383.279 161.597 379.952 171.076 374.945C180.429 370.005 192.396 363.568 204.664 356.891C229.24 343.517 254.899 329.251 263.242 324.117C276.844 315.746 284.911 308.594 289.712 299.553C294.532 290.475 296.276 279.089 296.288 261.744V261.743C296.292 258.148 296.174 254.832 295.987 252.399C295.971 252.194 295.955 251.997 295.939 251.808C294.76 252.446 293.347 253.3 291.88 254.29C291.88 254.29 291.88 254.29 291.88 254.29L290.203 251.802L153.447 383.894ZM153.447 383.894C150.311 385.088 146.764 385.795 143.584 385.962C140.287 386.135 137.859 385.702 136.666 385.063C136.373 384.906 135.735 384.46 135.732 382.136C135.733 382.138 135.733 382.139 135.733 382.139C135.734 382.14 135.745 381.995 135.823 381.637C135.907 381.25 136.042 380.734 136.235 380.08C136.621 378.774 137.204 377.041 137.974 374.914C139.511 370.667 141.749 364.976 144.529 358.228C150.087 344.739 157.776 327.122 166.281 308.573C167.038 306.92 167.715 305.427 168.328 304.072C169.67 301.11 170.711 298.811 171.646 296.958C173.013 294.25 173.94 292.957 174.838 292.202C175.643 291.525 176.669 291.076 178.784 290.724C180.303 290.47 182.113 290.302 184.519 290.077C185.65 289.972 186.913 289.855 188.34 289.71L188.038 286.725L153.447 383.894ZM197.493 247.408L197.494 247.408C212.796 235.464 221.15 228.828 226.221 222.881C231.506 216.684 233.241 211.221 235.76 202.199C237.479 196.039 238.438 188.269 238.623 181.212C238.716 177.67 238.615 174.252 238.302 171.252C237.995 168.302 237.464 165.564 236.6 163.494L236.6 163.493C231.31 150.813 217.025 146.277 198.664 148.75C187.046 150.316 173.527 154.411 166.65 158.641C166.057 159.006 165.417 159.583 164.855 160.124C164.235 160.721 163.501 161.479 162.68 162.365C161.034 164.139 158.956 166.508 156.595 169.293C151.869 174.867 145.946 182.181 139.96 189.896C134 197.576 128.544 204.51 124.557 209.495C124.36 209.741 124.167 209.982 123.977 210.218C124.195 208.265 124.448 206.118 124.721 203.895C125.735 195.639 127.011 186.508 127.81 182.424C134.226 149.642 148.839 116.871 167.205 93.8811C202.863 49.2507 268.563 13.7669 333.566 4.28004C339.466 3.41892 349.755 2.98359 359.395 3.00047C364.192 3.00887 368.768 3.12918 372.49 3.3573C376.338 3.59321 378.938 3.92906 380.014 4.26132L380.899 1.39542L380.014 4.26137C380.808 4.50642 381.975 5.23648 382.849 9.2488C383.721 13.2579 384.071 19.584 383.988 29.3491C383.524 84.1672 359.291 146.878 320.534 193.201C291.744 227.611 252.183 250.406 205.028 259.643L205.605 262.588L205.028 259.644C198.95 260.835 189.905 262.166 182.238 263.101C180.333 263.333 178.521 263.54 176.87 263.713C177.209 263.44 177.559 263.159 177.918 262.87C182.894 258.872 189.82 253.396 197.493 247.408ZM355.979 44.4909C353.328 38.8945 348.361 34.6722 342.854 32.3778C337.357 30.0879 330.987 29.5858 325.463 31.9123C301.372 42.0567 308.587 77.9863 334.743 77.9863C351.405 77.9863 363.111 59.5433 355.979 44.4909ZM265.356 69.3096L265.355 69.3098C251.326 72.9858 239.009 83.7475 234.088 96.8115L234.088 96.8116C227.824 113.44 232.114 133.102 244.742 145.114C249.426 149.569 253.532 152.593 258.448 154.433C263.33 156.261 268.749 156.822 275.875 156.822C281.06 156.822 284.602 156.708 287.478 156.23C290.482 155.73 292.685 154.848 295.24 153.484L293.827 150.837L295.24 153.484C304.327 148.631 311.224 141.67 315.702 132.768L315.702 132.768C317.365 129.462 318.453 126.92 319.08 123.966C319.698 121.06 319.837 117.907 319.845 113.436C319.869 100.323 315.925 90.2904 307.13 81.4844C301.976 76.3227 294.795 72.4631 287.387 70.293C279.991 68.1267 272.058 67.5543 265.356 69.3096ZM211.695 179.559V179.559C211.685 183.019 210.988 188.185 209.949 193.148C208.944 197.947 207.71 202.115 206.681 204.213C206.66 204.233 206.637 204.255 206.611 204.28C206.366 204.512 205.994 204.846 205.486 205.287C204.477 206.165 203.019 207.391 201.166 208.923C197.464 211.984 192.244 216.216 186.008 221.225C173.538 231.24 157.041 244.329 140.585 257.289C124.128 270.249 107.72 283.073 95.4303 292.558C94.1574 293.54 92.9291 294.486 91.7499 295.393C93.0411 293.737 94.3915 292.012 95.7805 290.244C104.938 278.589 128.027 249.062 147.091 224.628L144.725 222.783L147.091 224.628L181.162 180.955L187.827 178.953C191.956 177.713 196.002 176.479 196.792 176.215C196.726 176.237 196.686 176.248 196.687 176.25C196.688 176.254 196.863 176.222 197.329 176.177C197.873 176.125 198.613 176.073 199.505 176.025C201.285 175.93 203.585 175.856 205.965 175.829H205.966L211.706 175.761L211.695 179.559ZM206.821 204.075C206.861 204.027 206.872 204.021 206.828 204.067C206.826 204.069 206.824 204.072 206.821 204.075ZM113.982 312.893L112.122 310.539L113.982 312.893L140.794 291.71H148.68H151.06L149.081 294.006C141.864 302.378 124.01 318.214 108.142 330.239C91.7162 342.688 69.1544 356.381 48.7902 366.963C38.6137 372.251 29.0373 376.736 21.0954 379.889C17.1231 381.467 13.5968 382.696 10.6319 383.527C7.62133 384.372 5.36785 384.753 3.87657 384.753C3.54223 384.753 3.26452 384.749 3.02896 384.741C3.0092 384.381 3 383.904 3 383.259C3 380.271 4.39396 374.892 7.18455 367.583C9.92349 360.409 13.8567 351.751 18.601 342.388C28.0902 323.661 40.7345 302.287 53.3243 284.584C64.1754 269.326 80.2068 250.575 90.6205 240.919C92.2957 239.366 93.8784 237.907 95.2528 236.646C95.2565 237.455 95.2581 238.311 95.2572 239.196L95.2491 247.305L77.0066 270.88C66.6115 284.313 55.4766 298.222 52.247 301.827C46.838 307.862 43.5837 313.86 43.1628 319.806C42.7306 325.91 45.3205 331.353 50.2886 336.062C53.2976 338.915 55.8518 340.943 58.6979 342.198C61.599 343.476 64.5435 343.838 68.1321 343.838C70.6416 343.838 72.7773 343.605 74.9244 342.785C77.0344 341.98 78.9384 340.69 81.1135 338.939C83.994 336.62 98.7799 324.902 113.982 312.893ZM3.11567 385.484C3.1156 385.484 3.11456 385.481 3.11274 385.474C3.11484 385.481 3.11575 385.484 3.11567 385.484Z" stroke="url(#paint0_linear_3139_15)" stroke-width="6"/>
<defs>
<linearGradient id="paint0_linear_3139_15" x1="393.643" y1="4.00478e-06" x2="-6.42486" y2="391.028" gradientUnits="userSpaceOnUse">
<stop stop-color="#FFF3A6"/>
<stop offset="1" stop-color="#95906E"/>
</linearGradient>
</defs>
</svg>
