<svg width="1440" height="357" viewBox="0 0 1440 357" fill="none" xmlns="http://www.w3.org/2000/svg">
<path d="M920.056 221.651C467.557 247.253 84.3597 146.187 -50.6766 92.4531L-78.703 373.369H1386.31C1522.2 316.475 1769.51 188.699 1671.67 132.753C1549.38 62.8205 1485.68 189.648 920.056 221.651Z" fill="white"/>
<path d="M902.221 239.629C576.096 333.505 129.372 250.296 -53.2245 196.958L-83.7987 372.382H1506.06L1562.12 268.076C1478.04 219.479 1228.35 145.753 902.221 239.629Z" fill="#D5D5D5"/>
<path d="M777.376 183.534C547.05 118.106 29.1562 114.392 -201 120.713V377.923L1442.37 404C1491.62 309.571 1584.03 114.313 1559.57 88.7103C1528.99 56.7071 1065.28 265.32 777.376 183.534Z" fill="white" fill-opacity="0.3"/>
<path d="M991.396 168.312C563.356 234.689 99.6469 140.655 -78.703 85.3414L-114.373 293.954L1597.79 304.622C1597.79 268.668 1590.14 188.463 1559.57 155.274C1521.35 113.789 1526.45 85.3414 991.396 168.312Z" fill="#E0E0E0" fill-opacity="0.5"/>
<path opacity="0.5" d="M145.297 83.5279C145.297 91.3947 138.633 97.8084 130.366 97.8084C122.099 97.8084 115.434 91.3947 115.434 83.5279C115.434 75.6611 122.099 69.2474 130.366 69.2474C138.633 69.2474 145.297 75.6611 145.297 83.5279Z" stroke="white"/>
<ellipse opacity="0.5" cx="272.997" cy="57.266" rx="10.2877" ry="9.85366" fill="#D9D9D9"/>
<ellipse opacity="0.5" cx="374.911" cy="110.618" rx="10.2877" ry="9.85366" fill="#D9D9D9"/>
<ellipse opacity="0.5" cx="1164.75" cy="116.53" rx="10.2877" ry="9.85366" fill="#D9D9D9"/>
<path opacity="0.5" d="M1398.84 14.7805C1398.84 22.6473 1392.18 29.061 1383.91 29.061C1375.64 29.061 1368.98 22.6473 1368.98 14.7805C1368.98 6.91369 1375.64 0.5 1383.91 0.5C1392.18 0.5 1398.84 6.91369 1398.84 14.7805Z" stroke="white"/>
<path opacity="0.5" d="M899.462 145.164C899.462 153.03 892.797 159.444 884.53 159.444C876.263 159.444 869.599 153.03 869.599 145.164C869.599 137.297 876.263 130.883 884.53 130.883C892.797 130.883 899.462 137.297 899.462 145.164Z" stroke="white"/>
<path opacity="0.5" d="M53.9299 15.7799L56.921 24.5972L57.0361 24.9366H57.3945H67.0123L59.2501 30.3382L58.9414 30.553L59.0622 30.9092L62.0387 39.6833L54.2155 34.2392L53.9299 34.0405L53.6443 34.2392L45.8211 39.6833L48.7975 30.9092L48.9184 30.553L48.6096 30.3382L40.8474 24.9366H50.4653H50.8236L50.9388 24.5972L53.9299 15.7799Z" stroke="white"/>
<path opacity="0.5" d="M670.511 108.233L673.502 117.05L673.617 117.39H673.975H683.593L675.831 122.791L675.522 123.006L675.643 123.362L678.62 132.136L670.796 126.692L670.511 126.494L670.225 126.692L662.402 132.136L665.378 123.362L665.499 123.006L665.19 122.791L657.428 117.39H667.046H667.404L667.52 117.05L670.511 108.233Z" stroke="white"/>
<path opacity="0.5" d="M833.946 25.2052L836.937 34.0225L837.052 34.3619H837.41H847.028L839.266 39.7635L838.957 39.9783L839.078 40.3345L842.055 49.1086L834.231 43.6645L833.946 43.4658L833.66 43.6645L825.837 49.1086L828.813 40.3345L828.934 39.9783L828.625 39.7635L820.863 34.3619H830.481H830.839L830.955 34.0225L833.946 25.2052Z" stroke="white"/>
</svg>
